# xmcd
# Copyright (C) 1995-1998 Ti Kan
#
# Track frame offsets:
#       150
#       14797
#       29478
#       49122
#       64053
#       84651
#       114185
#       130919
#       153123
#       170672
#
# Disc length: 2515 seconds
#
# Revision: 0
# Processed by: cddbd v1.5.2PL0 Copyright (c) Steve Scherf et al.
# Submitted via: CD-Transfer v1.0
#
DISCID=8009d10a
DTITLE=Various Artist - Indétendances 26
DYEAR=06
DGENRE=
TTITLE0=Clap Your Hands Say Yeah - Is This Love?
TTITLE1=Calla - It Downed On Me
TTITLE2=Cyrz - Le Fer Forgé
TTITLE3=Emily Loizeau - L'autre Bout Du Monde
TTITLE4=Holden - Ce Que Je Sais
TTITLE5=Saycet - Chromatic Birds
TTITLE6=Jehro - Everything
TTITLE7=Thomas Dybdahl - One Day You Will Dance For Me New York City
TTITLE8=Lauren Hoffman - Another Song About The Darkness
TTITLE9=Marie Mondiano - Honolulu
EXTD=
EXTT0=
EXTT1=
EXTT2=
EXTT3=
EXTT4=
EXTT5=
EXTT6=
EXTT7=
EXTT8=
EXTT9=
PLAYORDER=
